<mxfile host="app.diagrams.net" modified="2023-04-17T06:30:05.931Z" agent="Mozilla/5.0 (Macintosh; Intel Mac OS X 10_15_7) AppleWebKit/537.36 (KHTML, like Gecko) Chrome/112.0.0.0 Safari/537.36" etag="xKmR_rGtoxYMJR8nDHBP" version="21.1.4" type="device">
  <diagram name="Page-1" id="GFm_iVIkwVsUpTuctzpR">
    <mxGraphModel dx="684" dy="369" grid="1" gridSize="10" guides="1" tooltips="1" connect="1" arrows="1" fold="1" page="1" pageScale="1" pageWidth="827" pageHeight="1169" math="0" shadow="0">
      <root>
        <mxCell id="0" />
        <mxCell id="1" parent="0" />
        <mxCell id="nQtQiy90exKeA4j0OEoB-3" value="" style="shape=image;verticalLabelPosition=bottom;labelBackgroundColor=default;verticalAlign=top;aspect=fixed;imageAspect=0;image=data:image/jpeg,/9j/4AAQSkZJRgABAQAAAQABAAD/2wCEAAoHCBYVFBgWFhYZGRgaHB4eHRkZHB0dIx4eGhwkHhwaHRwcJC4lHB4rIR4cJjgmKzAxNTU1HiQ7QDs0Py40NTEBDAwMEA8QHhESHjQrJCs0NDQ0NDQ9NDQ9NDQ0NDQ0NDQ0NDQ0PTQ0NDQ0NDQ0NDQ0NDQ0NDQ0NDQ0NDQ0NDQ0NP/AABEIAM0AzwMBIgACEQEDEQH/xAAcAAABBQEBAQAAAAAAAAAAAAAAAwQFBgcBAgj/xABKEAACAAQEAwQGAw0GBQUAAAABAgADBBEFEiExBkFREyJhcQcyUoGhwXOR0RQWIyQ0QlRikpOxsvAVU3SzwvEXNXKC0kNjoqPh/8QAFQEBAQAAAAAAAAAAAAAAAAAAAAH/xAAZEQEBAQEBAQAAAAAAAAAAAAAAEQExQSH/2gAMAwEAAhEDEQA/ANmggggCCCOQBBEZX1DKwCkgWG2XmT1B6Q7eYRLzc8t/faCw5giOw2ezFrknzt8gISral1ewYgabBeniDBErBDObNbsgwPeIXWw52vp74Rw6ezE5jcW52+QHjBYkoIiKuqcOwDEAEWsF9kHmOph/UuQhINjYfEiBDiCGGG1DNmzG9rdPHoB0hvW1bqzBWsBsLD2QeYvzgRMQQ1rphVCQbG4+LAc4Qw2oZi2Y32tt8gIIkIIh6yqdXYBjYbCy9L8xf4w+rphCXU2Nxrp89ILDqCI/DZ7NmzG9rW253vsB0hKqq2V2AJsOXd9kHpfnAiWghrXOQhINjprp18YTw6czKcxvr4fIQQ+ggggORwgHQx6ggCCCOQGA+kbjepnVT00h2kpJdk7jlWd1JVmJFtLg2X3+VR/tCv8A0if++f8A8oU4i/5rVf4md/mNCsRd3at3B2JMJH4eY7PnbV2Zzaw5m8VvDa6oNYmebMMoTb5WdioAOndJP1Wj3RV5lqRlvrcaw2SYQwbmDeKVPca4lMKyjTzZitdrlHZDbTcgi8SHCmJEU6ds7l87XLFmJ1Frsd9IrFdWdpbu2A+ceqPECi5ct+YghTB6+oFaM82aZOdu6XYqFF8oy3tYdOUSnGeJTCkv7nmOr5muUdlNiBpcEXGkV6XOKuH53vaHFdW9pYZbAeN4LdWrhvErU0sTHcv3sxYsxJJO5J198VPA8QqRVSxMnTWlBj3WmMy21t3S3lCtLiJRMuW9tjfr1hpJmFWDcwbwKnONMRmnsjTzZinvZsjslxpa9iLxI8O4kfuRRNdzMs9yxZiSb2uxJvFZrqvtCNLAfOPVNiBRCmW+9jfrBK7wxiNT90p206a0vvaM7MNFOXuk8olONMRmFZRp5rq12zFGZTbTmCLiIGmmlGDDW0L11Z2lu7YD37wW6tmBYn+LS+0dy+VgxYkkkk7nnFa4UxCoFT+GnTGTK1gzuwHSwJhOnxIomTLe17G/WG1LPKOGtfw84JUxxpiM7PKNPNmKcrBijsl9djYi8SuDYleiAd3Mwq4YksxJN7Etz/rwirVtV2hBtYDbnCkjECqZMt97HzgUpwniVQKhROnzWl2bRndhfLoct94ccZYjO7RPuedMUZO9ldluQxtcA67xF007I4YC9uUe66qztmtYAW3gt1Hf2lX6/jFR++fl/wB0ar6HuMp1SWpJ5LsiF1msbsVDKpVidWPeFj0jK5j3v0i2egn/AJjN/wAO/wDmS4g+gIIIIqORGV9UyNYNYWGnd536iJOG82qVTZib+RP8BBcY1jXDVO0ydPKsZjMzE5/zma5Nh1uYrGJUqJlKnfkTf3x6x/Aqpq2onCW3ZNPmMDcDutMJU2JuNxpDKdIdLZlIv1gb14ggggggjy+xjXsL4Vo2p5TNTozMiMzd7UlQb7wGRwRrFdhOEyWyTUkI1g2VmcGx2O+0N+wwQ3/Jt/bf6t+UBl8EP+IOyFRN7DL2QbuZb2tYbX98WzhLghJktZ9SWs2qS1NrryZjv7oCiQRqlTh+ES3KOshHXQqzPcXHPXciI3H+CJTyu3oSNs2QNmVwNTlPI25QGewR7pgGdAdi6g+RYAiNkPCFCD+TJv1b7YDGII1OfQ4OjsjinV1JDKXe4I3G+loXp+HcMqUfskRgDYvLZrqbdSffAZLBE5xVw29FMAuXlvfI5303U+IiDgCEZ52haEZ+4gJbDMMluis12JOoDWtra0X7g7BJNJUF5AZXZGUkuGupIa1j4qPqjLpNBMdbohIO2wufri7eiXDKimrXeejKhksoPral0YaAkjQGC42HDZ7ODmN7W6fKH0JSJysLg/Aj+MKwR2GNVQ5zmzW20sTt7xD6IqvqGVrK1hYaafMeEBimO8X5amfT9iDlmumfMdcjkZrcttohq2tMwAWsBrveLhjPDtMXnTTLu5d3LZm1ZmuTvvqTFUxSlRApXQnlf4wDCCCCA8vsfKN4wcfi8j6JP5RGDvsfKN3wUfi8j6JP5RAZr6SwPu4fRJ84qcaTxnwpUVNR2soJlyKvefKbrfwinY1w1UUqI80IA5sMr5je1+kBD/aP4x9Ay1AVQNgqgeQAj5+Ma7wTxItTLEtyBPlgAg/nqNAw6+MBROPpZWvm3BAYIVuNCMoGnXUQcMcVvRKyKiurMGszEZdLGwHWNM4hwGXWS8j6OvqON1PTxEY9i2FzKaYZcxbEbHkw6iATSZmnK1rBpgOUcszg213je33PnGAUh/CJ/wBafzCN/fcwGJ8XH8eqdLfhD/ARc/RYfwE8f+4v8n9fXEdxBwdVzqqdMREyO5IJcDSwtpbwixcC4NOpZc1JwUF3DLlYNoFtygEPSWt6IG201PiDeMrjRPSdia5EplN2zZ3A/NA2B8ecZ3AEIz9xC0Iz9xAPaTGGRAuQNl2NyPGL16OeITXVbSuzCZZbPe5a9mVbW0t62/hFRwvDpTopYZi2+p0120i/8KYRJpp+eQmRyjKTmJuCQbd6/MAwXGj0dNkB1vfwtt7zDqGGHTiwOY32/rSH8EENptSqnKd9PjDmGFXRF2vmA0GhUn5iAwHHuH6pqyonAfgmnTHAzgd1nJXS/jEdUU7pbON9je8WDHOLwtRPp+xuVmOmfNvkcjNa3O0QtbWmZYZbAa73gu9NIIIII8vsfKN3wb8nkfRJ/KIwh9j5RvGDfk8j6JP5R9UBUOM+KammqRLlMgXIrd5A2pvfW8U/GuJKiqVUnFCqnMAqBdbWvEr6Sz+Oj6JP4mKleA7HuROdHV0Yq6m6sNCDCcWfHODnpqcVAmh1JXRUIsrD1ib68oC68H8VrVr2cyyz1GvRwPzh4xI8S4IlXJKEDOASj21VrbeR2jJeGHIrKYqde0XUdDofhG5L63vgMAp1KzUBFmDqCPEOAY35zqYwie16pjuDPJ/+yN3fc+f9ecBmvEHGdXJqpstGQJLcqoZATa3U7xFT+Oq51K9oi3G6IAfHXW0MuLvy6p+kP8BERAepjlmLMSzE3JJuSfEx5gggCEZ+4haEZ+4gFabDpjrdF0OxzZYvPoqwafTVrPPtkMllXvhtS6EaX00DRT6PGCiBSgbLtrbTe0Xr0e8Qiuq2lCXkyy2fMSW2ZVtbT2vhBca1IqFa9uULw0o6bJfW9/C23vPWHcEERGIzyrgBiNBztEvDeZVKpsTr5GAyHGMJpi02YZaF2ZmzZrksWuT62pveKlikhEC5AAegPKO49w7UtW1E8S/wbTpji7L6rMWGl9NDDKdTulsy2vtA0nBBBAcbYxruF8VUSSJKNUIrKiKQQ2hCgezGRQ4WhmkAiVMIOxCMQb9DaA1GsxfCZrZ5jyHawXMyuTYbcuUIGqwXpTan2G6+WljGbnD539zN/Yf7I4aCd/czdP1H+yAccQmUamb2GXsi3cy7WsNvfeLVwtxqiShT1YJQDKr2zgryV18Ippw+cP8A0Zv7D/ZHf7OnXt2M2/8A0P8AZAaXJxDB0cOhkK6nMGCMCDvcab84ZcTcdy+zaXSlmdhYzLFVUEa5b6kxnc2UyHK6sp6MCD9RjxAeqZgroTsHUn3MCdo2VuL6E6/dKanazfZGNSpbOcqKzHooLH4Q4/s6fv2E392/2QDjiSpSZVz3RgyM5KsOYsOsRsOWw6cBcyZoHXI/2Q2OhsdCOR0P1GAIIIIAhGfuIWhGfuICawqkksikqrG/ezHx2teL/wAL0EiRPzSURHKMCUbUg2NjY7aA+6Mpk4dMdbqlwdtQL/XF39EuDTqWteZPXKjSWUHMD3iyMNATyDQXGv4ZMLA3JO3O/wAYkIRkz1b1TeFoIIZ1NEHa5PTl0/3h5EZXO4bu3tYbfHaAxDHOL3Wqn0/ZJ3ZsxM+ZtcjkXty2iIrK1pgAIAA6Rb8bw2jMyc7LK7Uu7E5+9nLEnTNve8VTE5UtcuS1+YBvpAMYIIIDhjVsA4upEppKPUBXSWqsLPuBte0ZVBAbKONKL9JH7L8/dHRxpRfpI6+q/l03jGkRmYKoLMdAo1JMaVwpwQJeWbUgM+6y9wvi3UwF0pqoOiujMVYXBIYfA6wqGPU/XCU+cqKXdgqqNWOgAjNeKeOHm5pVMSibM+zPy09kQDD0h1CPXMUcNZEUkG9iL3GkNuEuHjWTSCSstLF2HPoo8TECBF44O4ppqSn7N1mF2dmYooIsdtSYC8Z6aglDVJKbX5t9WrGGh42of0n/AOL8/dGX8R4samoeZc5L2RTyUbacjEXAbZQ8VU06YsuXPzO2wyuOV9yLQY9w/Jq0IdQH/NmKLMD4kbiMz4DP4/J/7/5DGxQGDYlQPTzXlOO8ht5jkw8DDaLx6U5AE6Q/5zIynxCHQ/GKPAEIz9xC0Iz9xAPKXGHRAuRWC7XJHjbSLx6N+ImrqxpTS1QLKZ7gk3IZVtuPa+EVHDKWQyKWylidczW+e1o0Dg6jppVQWpllhyjA5HzEroTpc6XA1guNKpKYIDre8OYY0DMb5r8t/l8IfQQQ2n1aobG/w+ZhzDGqoc5zZre6+3vEBgGPcLVDVlRUWTI06Y4GcXys5I062MR1RSulswtfobxO45xeVqZ9P2SnLNdC+Y65HK3tyvbaIesrTMAFrAeN4LvTWCCCCCOEx2OEQGvcGcPypElJoGaZMRWLsPVzC9l6DxizRktLx5Uy5aoqSbIoUEqxNl697eFj6RKr2JH7Lf8AlAWribhqorDY1KogPdlhDbzYg3JjP8c4ZqKXvOoZPbTVff7MXjgziqdVznSYqKqpmGQG98wGtz4xbp0pXUo4DKwsQeYMB8/x2JPiPC/uapmSvzQQUJ9hhdYjIAggj3TyHdlRFLOxsqjmYCd4D/L5Nv17/sGNiivcJ8MrRpmazTmHeb2f1VhfifiBKOXmNmmMO5L6nqeggKn6VSM9OOYV7+RIt8/6MUOF6+tefMaZMbM7fDwHQQhAEIz9xC0Iz9xALSMMmOuZVFjoLkC8Xf0V4DOo615k3LlaUyDKwJuWRhp0spin0eMMiBcgYLtqR4xePRzxE1dVtK7NUCy2fNctezKtrae18ILjXKeoDg2vp1t8jDiGtHTZARe9/C20OoIIicQZg/dLWsNiwGp8DaJaGlRWqhykEm3K3zIgMlxnD6YtNcpKMzMxLXBYtmuSdbk77xUcVlouXJYHmB0h1j3Cc5quoqQyZGnTHCljcKzlhfTxiMqaRkte1jzEDSEEEEAQRyFRTPa+R7WvfI1uu9ukAnBHI7AXP0XflM36L/WI0+Mw9F35TN+i/wBYjT4DJ/ST+XH6NPnFVi1ekn8uP0afOKvJlM7KiKWZjYKNyYAkSWdlRFLOxsqjmY1zhHhdaRM72aew7zex+qv2xzg/hdaVM7gNPYan2B7K/bEjxBjsukl531Y+onNj9kBziHHpdHLzvq59RObH7IxvEa96iY02Y12b6gOg8I9YpiMypmNMmNdjsOSjoPCGkAQQQQBCM/cQtCM/cQEzhVPJZFuELX72Yjr48rRoPDFJISfeQstHyEEoQDluN8pva9vhGW0+EvMUMMoB2zH3RePRfgEyirGmzCjK0pkshuQSysN7eyR74LjWcMLENmJ5bknrexPuiQhtTVIe9gRbrbn5GHMEENKijVzck/7f7w7iLry+bu5rWG2a3w0gMPx7i51q59OJaFVmumbvXIRyL787REVdYz2BAAHIRcMZpKIvOYiT2udySW72fN3rgm+a97xVcSlywFyWvzCm+kDTGCCCA5GycDYoKijRSe9LAR18B6p94jHIe4Pis2mmCZKax2IOzDoRATWO8F1MqY3ZI02WxJVksSATsy8rRGfe1Wfos79iL5QekSmcDtUeW3PKM638Law7HH1D7cz9231wEJ6O8JqJNRMabJdFMuwLi1znGnnGg9STYDUnoBuYrDcfUVvXmHwEs/MxUuJuNnqVMuSrS5Z9Yk95xfnbYeEBFcW4kKmreYvqiyL4hNL+/eLp6N8IliQKm15jsygn80Kbd3zjMhGg8H8V01NSpKms4cM5IVC27XGo5wGhLvGP4zhuIVE53ennNqcvd0C3sAsXn7/KH23/AHbQff7Q+3M/dtAZz97dZ+jTv2IPvbrP0ad+xGjHj2h078zU/wB231wff7Q39eZ+7aAy6uw6dJy9rKeXmvbOLXtDWLXx3j0mqaSZLMRLDg5lK6kja/lFUgCEZ+4haEZ+4gHVLizy1ChVYDa9/O2kXr0Y8QPW1jSnRVCyme63vo6LbXl3vhFRw2XTlFz5Cfzs5tz/AIWjQOEZFMs8mmEvPkbN2RJbLpe+U3tfL8ILjSqamCXsSb9fD/eHMMMOzWObNy9bN/q90P4IIaT61UOUgnyt8zDuGlRRKxuSR5W+YMB8/wCP8Kz2rKioBTI06Y4GbUK0wkX03sYjamkdLZgLHmDEpjvFk5ayop8qZFnTEuQb2VyASQd7CIyqrGcDNaw6CC70hBCBnQdqfCCF4IQ7U+Ec7Y+EA4ghDtT4QdqfCAXghDtT4QdqfCAXghDtT4QdqfCAXghDtT4Rztj4QDiCEO1PhB2p8IBeCEO1PhB2p8IBeEZ+4jnanwjyz3gHdPhcx1zKFsdrm1+UXb0XYDNoqx5k3IQ0pkARgSCXRudtLKYpVNijooUZSBtmF7c4u3oux+ZW1jypgVQsp3BQWNwyLzuNmMFxsNNUh72BFutufkTDmG1NTBAbEm/W3yAhzBBBBBAfK/EumK1V/wBJnfztCTzgeY+sRsXHPovStm9vIcSZrH8IGBKufbsNm620Pncmq/8ABSo/SZO3R9/q28Yi7l+oHAaNHRmKZ7tlva9vs84iqdFM5U/Xy2577Rq3D/Bk2iTsmmI5L5rrcCx02I02iHpPRXUy561PbSSofOVGcGxN9DltfXyikVLiClVAhCZLkja17ecL4HQo8vMUz5iRexOg6ReOIuA51cqqsyWmRiSWzHRhYWAHUQ4wHhGbRylkM6MVcnMuYDvWPMXgk9ZXSyVaeE3GcjLz0vpD7H6VEVGCZLkja19IuNB6M6iVUCradKK5s2UZr9/S17W0uPPXaHvEXA0+uRUWZLQoxbvZtb2HIeZ+qCxSMHw9HkhimbMT3rX2NtDyiHopavNVNwWtbnpGs4NwxNpZKSXdGZMwuCbEE3FrjTQ84hKH0V1EioSoM+UwVsxUZ7942AFxrvzttAioY/TKmQhcl7ja17ecOMJoUeTmKZs2bvWvt48ouvEPAU+v7MLNlqJeYktmN82wAA8Dv8YdYNwrNppHYO6FlzglS1iGFwdRfYjSBGVYZLV5qJ6wJOg8B0h/j9KiZGC5CbjoDaLfhPotqKSes8z5TKpNwMwNmFtLix1Ih/xBwHOr1RUmS0yEklsxuG00sPA/CBFLwvDkeSrFM2YE5rE+Gh5RFYRJV5wS2Yamw8OojVcL4Ym08lZDOhZAwuL2OpIOo6HYxD4N6M6ijnie06UykMCq5wRmBta66jSBFKx6mRGQhcmYHTbbzh3hlAj0+YpfMG71ul7WPKLlxF6Pp9cUyzZaZFN82Y3LHujQaDQ6/DWHmGcKTpFOKdnRmUOtwTlOa5B1Gm4uIEZZhMtXmqp7w1NhrsIcY9IVHWyhMy7bbHeLvgvovqKScs9p8pwLggZgRmG4JGuv2wtxD6OZ9c6Os6WoRcpzZidSTyHlAjLTMHUfWIuPoJ/5jM/w7/5kuHX/AATqdPxiTyvo/v5axpHAnBUrDZRsQ89/Xm2tcXuEUH1VHxOp5ADi3QQQQQQQQQBBBBANKijVzckg6bW5eY8YWeUCuXla39XhWCAbU1KEvYk362+QjxPoldsxJB8LfMeEPIIBu9OCmTWwAHjpa38I801GEJIJ162+Qh1BAMptArMWJNz5dLdPCHEySGXKdtPhCsEA1pqQJexJvbe3K/QeMeJ1ArEsSQTva3QDp0EPYIBGokhlKkkXtqPA3jxTUoS9iTfrb5CHMEAxnYerEkk69LdLdIXnyAy5T8P/ANheCAa0tKEvYk3tvblfp5x4m0KsxYk3PS3S3S/KHsEAjUSQy2Py+ceaamCAgEm/W3yEOIIAggggCCCCA//Z;" vertex="1" parent="1">
          <mxGeometry x="712" y="251.32999999999998" width="34" height="33.67" as="geometry" />
        </mxCell>
        <mxCell id="YDq6ZiGEFB8w_pZqPFXM-22" style="edgeStyle=orthogonalEdgeStyle;rounded=0;orthogonalLoop=1;jettySize=auto;html=1;exitX=1;exitY=0.25;exitDx=0;exitDy=0;entryX=0;entryY=0.5;entryDx=0;entryDy=0;" parent="1" source="YDq6ZiGEFB8w_pZqPFXM-1" target="YDq6ZiGEFB8w_pZqPFXM-7" edge="1">
          <mxGeometry relative="1" as="geometry" />
        </mxCell>
        <mxCell id="YDq6ZiGEFB8w_pZqPFXM-27" value="&lt;b&gt;bridge1&lt;/b&gt;" style="edgeLabel;html=1;align=center;verticalAlign=middle;resizable=0;points=[];" parent="YDq6ZiGEFB8w_pZqPFXM-22" vertex="1" connectable="0">
          <mxGeometry x="0.0556" y="2" relative="1" as="geometry">
            <mxPoint as="offset" />
          </mxGeometry>
        </mxCell>
        <mxCell id="YDq6ZiGEFB8w_pZqPFXM-29" style="edgeStyle=orthogonalEdgeStyle;rounded=0;orthogonalLoop=1;jettySize=auto;html=1;exitX=1;exitY=0.75;exitDx=0;exitDy=0;entryX=0;entryY=0.5;entryDx=0;entryDy=0;" parent="1" source="YDq6ZiGEFB8w_pZqPFXM-1" target="YDq6ZiGEFB8w_pZqPFXM-11" edge="1">
          <mxGeometry relative="1" as="geometry" />
        </mxCell>
        <mxCell id="YDq6ZiGEFB8w_pZqPFXM-30" value="&lt;b&gt;bridge2&lt;/b&gt;" style="edgeLabel;html=1;align=center;verticalAlign=middle;resizable=0;points=[];" parent="YDq6ZiGEFB8w_pZqPFXM-29" vertex="1" connectable="0">
          <mxGeometry y="-1" relative="1" as="geometry">
            <mxPoint x="4" y="-3" as="offset" />
          </mxGeometry>
        </mxCell>
        <mxCell id="YDq6ZiGEFB8w_pZqPFXM-1" value="&lt;b&gt;&lt;font style=&quot;font-size: 24px;&quot;&gt;im2im&lt;br&gt;&amp;nbsp;&lt;br&gt;&lt;/font&gt;&lt;/b&gt;" style="rounded=0;whiteSpace=wrap;html=1;fontSize=18;fillColor=#fad9d5;strokeColor=#ae4132;" parent="1" vertex="1">
          <mxGeometry x="340" y="190" width="156" height="100" as="geometry" />
        </mxCell>
        <mxCell id="YDq6ZiGEFB8w_pZqPFXM-2" value="im2im.yaml&lt;br&gt;Example: two-way communication" style="swimlane;fontStyle=0;childLayout=stackLayout;horizontal=1;startSize=30;horizontalStack=0;resizeParent=1;resizeParentMax=0;resizeLast=0;collapsible=1;marginBottom=0;whiteSpace=wrap;html=1;fillColor=#fff2cc;strokeColor=#d6b656;" parent="1" vertex="1">
          <mxGeometry x="303" y="50" width="221.5" height="100" as="geometry" />
        </mxCell>
        <mxCell id="YDq6ZiGEFB8w_pZqPFXM-4" value="&lt;b&gt;bridge1:&lt;/b&gt;&amp;nbsp;TCP (client) → telegram_bot" style="text;strokeColor=none;fillColor=none;align=left;verticalAlign=middle;spacingLeft=4;spacingRight=4;overflow=hidden;points=[[0,0.5],[1,0.5]];portConstraint=eastwest;rotatable=0;whiteSpace=wrap;html=1;" parent="YDq6ZiGEFB8w_pZqPFXM-2" vertex="1">
          <mxGeometry y="30" width="221.5" height="30" as="geometry" />
        </mxCell>
        <mxCell id="YDq6ZiGEFB8w_pZqPFXM-5" value="&lt;b&gt;bridge2:&lt;/b&gt; telegram_bot&amp;nbsp;→ TCP (server)" style="text;strokeColor=none;fillColor=none;align=left;verticalAlign=middle;spacingLeft=4;spacingRight=4;overflow=hidden;points=[[0,0.5],[1,0.5]];portConstraint=eastwest;rotatable=0;whiteSpace=wrap;html=1;" parent="YDq6ZiGEFB8w_pZqPFXM-2" vertex="1">
          <mxGeometry y="60" width="221.5" height="40" as="geometry" />
        </mxCell>
        <mxCell id="YDq6ZiGEFB8w_pZqPFXM-12" style="edgeStyle=orthogonalEdgeStyle;rounded=0;orthogonalLoop=1;jettySize=auto;html=1;exitX=1;exitY=0.5;exitDx=0;exitDy=0;entryX=0;entryY=0.25;entryDx=0;entryDy=0;" parent="1" source="YDq6ZiGEFB8w_pZqPFXM-6" target="YDq6ZiGEFB8w_pZqPFXM-1" edge="1">
          <mxGeometry relative="1" as="geometry" />
        </mxCell>
        <mxCell id="YDq6ZiGEFB8w_pZqPFXM-16" value="&lt;b&gt;bridge1&lt;/b&gt;" style="edgeLabel;html=1;align=center;verticalAlign=middle;resizable=0;points=[];" parent="YDq6ZiGEFB8w_pZqPFXM-12" vertex="1" connectable="0">
          <mxGeometry x="-0.0755" y="-3" relative="1" as="geometry">
            <mxPoint y="-4" as="offset" />
          </mxGeometry>
        </mxCell>
        <mxCell id="YDq6ZiGEFB8w_pZqPFXM-6" value="&lt;b&gt;TCP&lt;/b&gt; (client)" style="shape=parallelogram;perimeter=parallelogramPerimeter;whiteSpace=wrap;html=1;fixedSize=1;fillColor=#bac8d3;strokeColor=#23445d;" parent="1" vertex="1">
          <mxGeometry x="124" y="195" width="120" height="40" as="geometry" />
        </mxCell>
        <mxCell id="YDq6ZiGEFB8w_pZqPFXM-7" value="&lt;b&gt;telegram_bot&lt;/b&gt;&lt;br&gt;&lt;font style=&quot;font-size: 10px;&quot;&gt;chat_id 123456&lt;/font&gt;" style="shape=parallelogram;perimeter=parallelogramPerimeter;whiteSpace=wrap;html=1;fixedSize=1;fillColor=#b1ddf0;strokeColor=#10739e;" parent="1" vertex="1">
          <mxGeometry x="594" y="195" width="120" height="40" as="geometry" />
        </mxCell>
        <mxCell id="YDq6ZiGEFB8w_pZqPFXM-13" style="edgeStyle=orthogonalEdgeStyle;rounded=0;orthogonalLoop=1;jettySize=auto;html=1;exitX=1;exitY=0.5;exitDx=0;exitDy=0;entryX=0;entryY=0.75;entryDx=0;entryDy=0;" parent="1" source="YDq6ZiGEFB8w_pZqPFXM-10" target="YDq6ZiGEFB8w_pZqPFXM-1" edge="1">
          <mxGeometry relative="1" as="geometry" />
        </mxCell>
        <mxCell id="YDq6ZiGEFB8w_pZqPFXM-18" value="&lt;b&gt;bridge2&lt;/b&gt;" style="edgeLabel;html=1;align=center;verticalAlign=middle;resizable=0;points=[];" parent="YDq6ZiGEFB8w_pZqPFXM-13" vertex="1" connectable="0">
          <mxGeometry x="0.0862" y="3" relative="1" as="geometry">
            <mxPoint x="-6" y="2" as="offset" />
          </mxGeometry>
        </mxCell>
        <mxCell id="YDq6ZiGEFB8w_pZqPFXM-10" value="&lt;b&gt;telegram_bot&lt;/b&gt;&lt;br&gt;&lt;font style=&quot;font-size: 10px;&quot;&gt;chat_id 123456&lt;/font&gt;" style="shape=parallelogram;perimeter=parallelogramPerimeter;whiteSpace=wrap;html=1;fixedSize=1;fillColor=#b1ddf0;strokeColor=#10739e;" parent="1" vertex="1">
          <mxGeometry x="114" y="245" width="120" height="40" as="geometry" />
        </mxCell>
        <mxCell id="YDq6ZiGEFB8w_pZqPFXM-11" value="&lt;b&gt;TCP&lt;/b&gt; (server)" style="shape=parallelogram;perimeter=parallelogramPerimeter;whiteSpace=wrap;html=1;fixedSize=1;fillColor=#bac8d3;strokeColor=#23445d;" parent="1" vertex="1">
          <mxGeometry x="594" y="245" width="120" height="40" as="geometry" />
        </mxCell>
        <mxCell id="105xIh7dhlAf1KrlEDfi-1" value="&lt;span style=&quot;font-style: normal;&quot;&gt;&lt;b&gt;&lt;font style=&quot;font-size: 13px;&quot;&gt;FROM&lt;/font&gt;&lt;br&gt;&lt;/b&gt;&lt;/span&gt;&lt;font style=&quot;font-size: 11px;&quot;&gt;Sends messages&lt;/font&gt;" style="text;html=1;strokeColor=none;fillColor=none;align=center;verticalAlign=middle;whiteSpace=wrap;rounded=0;fontStyle=2" parent="1" vertex="1">
          <mxGeometry x="160" y="140" width="60" height="30" as="geometry" />
        </mxCell>
        <mxCell id="105xIh7dhlAf1KrlEDfi-2" value="&lt;font style=&quot;font-size: 13px;&quot;&gt;&lt;span style=&quot;font-style: normal;&quot;&gt;&lt;b&gt;TO&lt;/b&gt;&lt;/span&gt;&lt;br&gt;&lt;/font&gt;&lt;font style=&quot;font-size: 11px;&quot;&gt;Receives messages&lt;/font&gt;" style="text;html=1;strokeColor=none;fillColor=none;align=center;verticalAlign=middle;whiteSpace=wrap;rounded=0;fontStyle=2" parent="1" vertex="1">
          <mxGeometry x="630" y="140" width="60" height="30" as="geometry" />
        </mxCell>
        <mxCell id="nQtQiy90exKeA4j0OEoB-1" value="" style="shape=image;verticalLabelPosition=bottom;labelBackgroundColor=default;verticalAlign=top;aspect=fixed;imageAspect=0;image=https://cdn.worldvectorlogo.com/logos/raspberry-pi.svg;" vertex="1" parent="1">
          <mxGeometry x="404" y="243" width="28" height="35.77" as="geometry" />
        </mxCell>
        <mxCell id="nQtQiy90exKeA4j0OEoB-2" value="" style="shape=image;verticalLabelPosition=bottom;labelBackgroundColor=default;verticalAlign=top;aspect=fixed;imageAspect=0;image=data:image/jpeg,/9j/4AAQSkZJRgABAQAAAQABAAD/2wCEAAoHCBYVFBgWFhYZGRgaHB4eHRkZHB0dIx4eGhwkHhwaHRwcJC4lHB4rIR4cJjgmKzAxNTU1HiQ7QDs0Py40NTEBDAwMEA8QHhESHjQrJCs0NDQ0NDQ9NDQ9NDQ0NDQ0NDQ0NDQ0PTQ0NDQ0NDQ0NDQ0NDQ0NDQ0NDQ0NDQ0NDQ0NP/AABEIAM0AzwMBIgACEQEDEQH/xAAcAAABBQEBAQAAAAAAAAAAAAAAAwQFBgcBAgj/xABKEAACAAQEAwQGAw0GBQUAAAABAgADBBEFEiExBkFREyJhcQcyUoGhwXOR0RQWIyQ0QlRikpOxsvAVU3SzwvEXNXKC0kNjoqPh/8QAFQEBAQAAAAAAAAAAAAAAAAAAAAH/xAAZEQEBAQEBAQAAAAAAAAAAAAAAEQExQSH/2gAMAwEAAhEDEQA/ANmggggCCCOQBBEZX1DKwCkgWG2XmT1B6Q7eYRLzc8t/faCw5giOw2ezFrknzt8gISral1ewYgabBeniDBErBDObNbsgwPeIXWw52vp74Rw6ezE5jcW52+QHjBYkoIiKuqcOwDEAEWsF9kHmOph/UuQhINjYfEiBDiCGGG1DNmzG9rdPHoB0hvW1bqzBWsBsLD2QeYvzgRMQQ1rphVCQbG4+LAc4Qw2oZi2Y32tt8gIIkIIh6yqdXYBjYbCy9L8xf4w+rphCXU2Nxrp89ILDqCI/DZ7NmzG9rW253vsB0hKqq2V2AJsOXd9kHpfnAiWghrXOQhINjprp18YTw6czKcxvr4fIQQ+ggggORwgHQx6ggCCCOQGA+kbjepnVT00h2kpJdk7jlWd1JVmJFtLg2X3+VR/tCv8A0if++f8A8oU4i/5rVf4md/mNCsRd3at3B2JMJH4eY7PnbV2Zzaw5m8VvDa6oNYmebMMoTb5WdioAOndJP1Wj3RV5lqRlvrcaw2SYQwbmDeKVPca4lMKyjTzZitdrlHZDbTcgi8SHCmJEU6ds7l87XLFmJ1Frsd9IrFdWdpbu2A+ceqPECi5ct+YghTB6+oFaM82aZOdu6XYqFF8oy3tYdOUSnGeJTCkv7nmOr5muUdlNiBpcEXGkV6XOKuH53vaHFdW9pYZbAeN4LdWrhvErU0sTHcv3sxYsxJJO5J198VPA8QqRVSxMnTWlBj3WmMy21t3S3lCtLiJRMuW9tjfr1hpJmFWDcwbwKnONMRmnsjTzZinvZsjslxpa9iLxI8O4kfuRRNdzMs9yxZiSb2uxJvFZrqvtCNLAfOPVNiBRCmW+9jfrBK7wxiNT90p206a0vvaM7MNFOXuk8olONMRmFZRp5rq12zFGZTbTmCLiIGmmlGDDW0L11Z2lu7YD37wW6tmBYn+LS+0dy+VgxYkkkk7nnFa4UxCoFT+GnTGTK1gzuwHSwJhOnxIomTLe17G/WG1LPKOGtfw84JUxxpiM7PKNPNmKcrBijsl9djYi8SuDYleiAd3Mwq4YksxJN7Etz/rwirVtV2hBtYDbnCkjECqZMt97HzgUpwniVQKhROnzWl2bRndhfLoct94ccZYjO7RPuedMUZO9ldluQxtcA67xF007I4YC9uUe66qztmtYAW3gt1Hf2lX6/jFR++fl/wB0ar6HuMp1SWpJ5LsiF1msbsVDKpVidWPeFj0jK5j3v0i2egn/AJjN/wAO/wDmS4g+gIIIIqORGV9UyNYNYWGnd536iJOG82qVTZib+RP8BBcY1jXDVO0ydPKsZjMzE5/zma5Nh1uYrGJUqJlKnfkTf3x6x/Aqpq2onCW3ZNPmMDcDutMJU2JuNxpDKdIdLZlIv1gb14ggggggjy+xjXsL4Vo2p5TNTozMiMzd7UlQb7wGRwRrFdhOEyWyTUkI1g2VmcGx2O+0N+wwQ3/Jt/bf6t+UBl8EP+IOyFRN7DL2QbuZb2tYbX98WzhLghJktZ9SWs2qS1NrryZjv7oCiQRqlTh+ES3KOshHXQqzPcXHPXciI3H+CJTyu3oSNs2QNmVwNTlPI25QGewR7pgGdAdi6g+RYAiNkPCFCD+TJv1b7YDGII1OfQ4OjsjinV1JDKXe4I3G+loXp+HcMqUfskRgDYvLZrqbdSffAZLBE5xVw29FMAuXlvfI5303U+IiDgCEZ52haEZ+4gJbDMMluis12JOoDWtra0X7g7BJNJUF5AZXZGUkuGupIa1j4qPqjLpNBMdbohIO2wufri7eiXDKimrXeejKhksoPral0YaAkjQGC42HDZ7ODmN7W6fKH0JSJysLg/Aj+MKwR2GNVQ5zmzW20sTt7xD6IqvqGVrK1hYaafMeEBimO8X5amfT9iDlmumfMdcjkZrcttohq2tMwAWsBrveLhjPDtMXnTTLu5d3LZm1ZmuTvvqTFUxSlRApXQnlf4wDCCCCA8vsfKN4wcfi8j6JP5RGDvsfKN3wUfi8j6JP5RAZr6SwPu4fRJ84qcaTxnwpUVNR2soJlyKvefKbrfwinY1w1UUqI80IA5sMr5je1+kBD/aP4x9Ay1AVQNgqgeQAj5+Ma7wTxItTLEtyBPlgAg/nqNAw6+MBROPpZWvm3BAYIVuNCMoGnXUQcMcVvRKyKiurMGszEZdLGwHWNM4hwGXWS8j6OvqON1PTxEY9i2FzKaYZcxbEbHkw6iATSZmnK1rBpgOUcszg213je33PnGAUh/CJ/wBafzCN/fcwGJ8XH8eqdLfhD/ARc/RYfwE8f+4v8n9fXEdxBwdVzqqdMREyO5IJcDSwtpbwixcC4NOpZc1JwUF3DLlYNoFtygEPSWt6IG201PiDeMrjRPSdia5EplN2zZ3A/NA2B8ecZ3AEIz9xC0Iz9xAPaTGGRAuQNl2NyPGL16OeITXVbSuzCZZbPe5a9mVbW0t62/hFRwvDpTopYZi2+p0120i/8KYRJpp+eQmRyjKTmJuCQbd6/MAwXGj0dNkB1vfwtt7zDqGGHTiwOY32/rSH8EENptSqnKd9PjDmGFXRF2vmA0GhUn5iAwHHuH6pqyonAfgmnTHAzgd1nJXS/jEdUU7pbON9je8WDHOLwtRPp+xuVmOmfNvkcjNa3O0QtbWmZYZbAa73gu9NIIIII8vsfKN3wb8nkfRJ/KIwh9j5RvGDfk8j6JP5R9UBUOM+KammqRLlMgXIrd5A2pvfW8U/GuJKiqVUnFCqnMAqBdbWvEr6Sz+Oj6JP4mKleA7HuROdHV0Yq6m6sNCDCcWfHODnpqcVAmh1JXRUIsrD1ib68oC68H8VrVr2cyyz1GvRwPzh4xI8S4IlXJKEDOASj21VrbeR2jJeGHIrKYqde0XUdDofhG5L63vgMAp1KzUBFmDqCPEOAY35zqYwie16pjuDPJ/+yN3fc+f9ecBmvEHGdXJqpstGQJLcqoZATa3U7xFT+Oq51K9oi3G6IAfHXW0MuLvy6p+kP8BERAepjlmLMSzE3JJuSfEx5gggCEZ+4haEZ+4gFabDpjrdF0OxzZYvPoqwafTVrPPtkMllXvhtS6EaX00DRT6PGCiBSgbLtrbTe0Xr0e8Qiuq2lCXkyy2fMSW2ZVtbT2vhBca1IqFa9uULw0o6bJfW9/C23vPWHcEERGIzyrgBiNBztEvDeZVKpsTr5GAyHGMJpi02YZaF2ZmzZrksWuT62pveKlikhEC5AAegPKO49w7UtW1E8S/wbTpji7L6rMWGl9NDDKdTulsy2vtA0nBBBAcbYxruF8VUSSJKNUIrKiKQQ2hCgezGRQ4WhmkAiVMIOxCMQb9DaA1GsxfCZrZ5jyHawXMyuTYbcuUIGqwXpTan2G6+WljGbnD539zN/Yf7I4aCd/czdP1H+yAccQmUamb2GXsi3cy7WsNvfeLVwtxqiShT1YJQDKr2zgryV18Ippw+cP8A0Zv7D/ZHf7OnXt2M2/8A0P8AZAaXJxDB0cOhkK6nMGCMCDvcab84ZcTcdy+zaXSlmdhYzLFVUEa5b6kxnc2UyHK6sp6MCD9RjxAeqZgroTsHUn3MCdo2VuL6E6/dKanazfZGNSpbOcqKzHooLH4Q4/s6fv2E392/2QDjiSpSZVz3RgyM5KsOYsOsRsOWw6cBcyZoHXI/2Q2OhsdCOR0P1GAIIIIAhGfuIWhGfuICawqkksikqrG/ezHx2teL/wAL0EiRPzSURHKMCUbUg2NjY7aA+6Mpk4dMdbqlwdtQL/XF39EuDTqWteZPXKjSWUHMD3iyMNATyDQXGv4ZMLA3JO3O/wAYkIRkz1b1TeFoIIZ1NEHa5PTl0/3h5EZXO4bu3tYbfHaAxDHOL3Wqn0/ZJ3ZsxM+ZtcjkXty2iIrK1pgAIAA6Rb8bw2jMyc7LK7Uu7E5+9nLEnTNve8VTE5UtcuS1+YBvpAMYIIIDhjVsA4upEppKPUBXSWqsLPuBte0ZVBAbKONKL9JH7L8/dHRxpRfpI6+q/l03jGkRmYKoLMdAo1JMaVwpwQJeWbUgM+6y9wvi3UwF0pqoOiujMVYXBIYfA6wqGPU/XCU+cqKXdgqqNWOgAjNeKeOHm5pVMSibM+zPy09kQDD0h1CPXMUcNZEUkG9iL3GkNuEuHjWTSCSstLF2HPoo8TECBF44O4ppqSn7N1mF2dmYooIsdtSYC8Z6aglDVJKbX5t9WrGGh42of0n/AOL8/dGX8R4samoeZc5L2RTyUbacjEXAbZQ8VU06YsuXPzO2wyuOV9yLQY9w/Jq0IdQH/NmKLMD4kbiMz4DP4/J/7/5DGxQGDYlQPTzXlOO8ht5jkw8DDaLx6U5AE6Q/5zIynxCHQ/GKPAEIz9xC0Iz9xAPKXGHRAuRWC7XJHjbSLx6N+ImrqxpTS1QLKZ7gk3IZVtuPa+EVHDKWQyKWylidczW+e1o0Dg6jppVQWpllhyjA5HzEroTpc6XA1guNKpKYIDre8OYY0DMb5r8t/l8IfQQQ2n1aobG/w+ZhzDGqoc5zZre6+3vEBgGPcLVDVlRUWTI06Y4GcXys5I062MR1RSulswtfobxO45xeVqZ9P2SnLNdC+Y65HK3tyvbaIesrTMAFrAeN4LvTWCCCCCOEx2OEQGvcGcPypElJoGaZMRWLsPVzC9l6DxizRktLx5Uy5aoqSbIoUEqxNl697eFj6RKr2JH7Lf8AlAWribhqorDY1KogPdlhDbzYg3JjP8c4ZqKXvOoZPbTVff7MXjgziqdVznSYqKqpmGQG98wGtz4xbp0pXUo4DKwsQeYMB8/x2JPiPC/uapmSvzQQUJ9hhdYjIAggj3TyHdlRFLOxsqjmYCd4D/L5Nv17/sGNiivcJ8MrRpmazTmHeb2f1VhfifiBKOXmNmmMO5L6nqeggKn6VSM9OOYV7+RIt8/6MUOF6+tefMaZMbM7fDwHQQhAEIz9xC0Iz9xALSMMmOuZVFjoLkC8Xf0V4DOo615k3LlaUyDKwJuWRhp0spin0eMMiBcgYLtqR4xePRzxE1dVtK7NUCy2fNctezKtrae18ILjXKeoDg2vp1t8jDiGtHTZARe9/C20OoIIicQZg/dLWsNiwGp8DaJaGlRWqhykEm3K3zIgMlxnD6YtNcpKMzMxLXBYtmuSdbk77xUcVlouXJYHmB0h1j3Cc5quoqQyZGnTHCljcKzlhfTxiMqaRkte1jzEDSEEEEAQRyFRTPa+R7WvfI1uu9ukAnBHI7AXP0XflM36L/WI0+Mw9F35TN+i/wBYjT4DJ/ST+XH6NPnFVi1ekn8uP0afOKvJlM7KiKWZjYKNyYAkSWdlRFLOxsqjmY1zhHhdaRM72aew7zex+qv2xzg/hdaVM7gNPYan2B7K/bEjxBjsukl531Y+onNj9kBziHHpdHLzvq59RObH7IxvEa96iY02Y12b6gOg8I9YpiMypmNMmNdjsOSjoPCGkAQQQQBCM/cQtCM/cQEzhVPJZFuELX72Yjr48rRoPDFJISfeQstHyEEoQDluN8pva9vhGW0+EvMUMMoB2zH3RePRfgEyirGmzCjK0pkshuQSysN7eyR74LjWcMLENmJ5bknrexPuiQhtTVIe9gRbrbn5GHMEENKijVzck/7f7w7iLry+bu5rWG2a3w0gMPx7i51q59OJaFVmumbvXIRyL787REVdYz2BAAHIRcMZpKIvOYiT2udySW72fN3rgm+a97xVcSlywFyWvzCm+kDTGCCCA5GycDYoKijRSe9LAR18B6p94jHIe4Pis2mmCZKax2IOzDoRATWO8F1MqY3ZI02WxJVksSATsy8rRGfe1Wfos79iL5QekSmcDtUeW3PKM638Law7HH1D7cz9231wEJ6O8JqJNRMabJdFMuwLi1znGnnGg9STYDUnoBuYrDcfUVvXmHwEs/MxUuJuNnqVMuSrS5Z9Yk95xfnbYeEBFcW4kKmreYvqiyL4hNL+/eLp6N8IliQKm15jsygn80Kbd3zjMhGg8H8V01NSpKms4cM5IVC27XGo5wGhLvGP4zhuIVE53ennNqcvd0C3sAsXn7/KH23/AHbQff7Q+3M/dtAZz97dZ+jTv2IPvbrP0ad+xGjHj2h078zU/wB231wff7Q39eZ+7aAy6uw6dJy9rKeXmvbOLXtDWLXx3j0mqaSZLMRLDg5lK6kja/lFUgCEZ+4haEZ+4gHVLizy1ChVYDa9/O2kXr0Y8QPW1jSnRVCyme63vo6LbXl3vhFRw2XTlFz5Cfzs5tz/AIWjQOEZFMs8mmEvPkbN2RJbLpe+U3tfL8ILjSqamCXsSb9fD/eHMMMOzWObNy9bN/q90P4IIaT61UOUgnyt8zDuGlRRKxuSR5W+YMB8/wCP8Kz2rKioBTI06Y4GbUK0wkX03sYjamkdLZgLHmDEpjvFk5ayop8qZFnTEuQb2VyASQd7CIyqrGcDNaw6CC70hBCBnQdqfCCF4IQ7U+Ec7Y+EA4ghDtT4QdqfCAXghDtT4QdqfCAXghDtT4QdqfCAXghDtT4Rztj4QDiCEO1PhB2p8IBeCEO1PhB2p8IBeEZ+4jnanwjyz3gHdPhcx1zKFsdrm1+UXb0XYDNoqx5k3IQ0pkARgSCXRudtLKYpVNijooUZSBtmF7c4u3oux+ZW1jypgVQsp3BQWNwyLzuNmMFxsNNUh72BFutufkTDmG1NTBAbEm/W3yAhzBBBBBAfK/EumK1V/wBJnfztCTzgeY+sRsXHPovStm9vIcSZrH8IGBKufbsNm620Pncmq/8ABSo/SZO3R9/q28Yi7l+oHAaNHRmKZ7tlva9vs84iqdFM5U/Xy2577Rq3D/Bk2iTsmmI5L5rrcCx02I02iHpPRXUy561PbSSofOVGcGxN9DltfXyikVLiClVAhCZLkja17ecL4HQo8vMUz5iRexOg6ReOIuA51cqqsyWmRiSWzHRhYWAHUQ4wHhGbRylkM6MVcnMuYDvWPMXgk9ZXSyVaeE3GcjLz0vpD7H6VEVGCZLkja19IuNB6M6iVUCradKK5s2UZr9/S17W0uPPXaHvEXA0+uRUWZLQoxbvZtb2HIeZ+qCxSMHw9HkhimbMT3rX2NtDyiHopavNVNwWtbnpGs4NwxNpZKSXdGZMwuCbEE3FrjTQ84hKH0V1EioSoM+UwVsxUZ7942AFxrvzttAioY/TKmQhcl7ja17ecOMJoUeTmKZs2bvWvt48ouvEPAU+v7MLNlqJeYktmN82wAA8Dv8YdYNwrNppHYO6FlzglS1iGFwdRfYjSBGVYZLV5qJ6wJOg8B0h/j9KiZGC5CbjoDaLfhPotqKSes8z5TKpNwMwNmFtLix1Ih/xBwHOr1RUmS0yEklsxuG00sPA/CBFLwvDkeSrFM2YE5rE+Gh5RFYRJV5wS2Yamw8OojVcL4Ym08lZDOhZAwuL2OpIOo6HYxD4N6M6ijnie06UykMCq5wRmBta66jSBFKx6mRGQhcmYHTbbzh3hlAj0+YpfMG71ul7WPKLlxF6Pp9cUyzZaZFN82Y3LHujQaDQ6/DWHmGcKTpFOKdnRmUOtwTlOa5B1Gm4uIEZZhMtXmqp7w1NhrsIcY9IVHWyhMy7bbHeLvgvovqKScs9p8pwLggZgRmG4JGuv2wtxD6OZ9c6Os6WoRcpzZidSTyHlAjLTMHUfWIuPoJ/5jM/w7/5kuHX/AATqdPxiTyvo/v5axpHAnBUrDZRsQ89/Xm2tcXuEUH1VHxOp5ADi3QQQQQQQQQBBBBANKijVzckg6bW5eY8YWeUCuXla39XhWCAbU1KEvYk362+QjxPoldsxJB8LfMeEPIIBu9OCmTWwAHjpa38I801GEJIJ162+Qh1BAMptArMWJNz5dLdPCHEySGXKdtPhCsEA1pqQJexJvbe3K/QeMeJ1ArEsSQTva3QDp0EPYIBGokhlKkkXtqPA3jxTUoS9iTfrb5CHMEAxnYerEkk69LdLdIXnyAy5T8P/ANheCAa0tKEvYk3tvblfp5x4m0KsxYk3PS3S3S/KHsEAjUSQy2Py+ceaamCAgEm/W3yEOIIAggggCCCCA//Z;" vertex="1" parent="1">
          <mxGeometry x="90" y="198.16" width="34" height="33.67" as="geometry" />
        </mxCell>
        <mxCell id="nQtQiy90exKeA4j0OEoB-4" value="" style="shape=image;verticalLabelPosition=bottom;labelBackgroundColor=default;verticalAlign=top;aspect=fixed;imageAspect=0;image=https://seeklogo.com/images/T/telegram-new-2019-simple-logo-FAD5A4800F-seeklogo.com.png;" vertex="1" parent="1">
          <mxGeometry x="714" y="201.83" width="30" height="30" as="geometry" />
        </mxCell>
        <mxCell id="nQtQiy90exKeA4j0OEoB-5" value="" style="shape=image;verticalLabelPosition=bottom;labelBackgroundColor=default;verticalAlign=top;aspect=fixed;imageAspect=0;image=https://seeklogo.com/images/T/telegram-new-2019-simple-logo-FAD5A4800F-seeklogo.com.png;" vertex="1" parent="1">
          <mxGeometry x="90" y="247.77" width="30" height="30" as="geometry" />
        </mxCell>
        <mxCell id="nQtQiy90exKeA4j0OEoB-6" value="&lt;meta charset=&quot;utf-8&quot; style=&quot;font-size: 10px;&quot;&gt;&lt;span style=&quot;color: rgb(0, 0, 0); font-family: Helvetica; font-size: 10px; font-style: normal; font-variant-ligatures: normal; font-variant-caps: normal; font-weight: 400; letter-spacing: normal; orphans: 2; text-align: center; text-indent: 0px; text-transform: none; widows: 2; word-spacing: 0px; -webkit-text-stroke-width: 0px; background-color: rgb(251, 251, 251); text-decoration-thickness: initial; text-decoration-style: initial; text-decoration-color: initial; float: none; display: inline !important;&quot;&gt;port 9001&lt;/span&gt;" style="text;whiteSpace=wrap;html=1;fontSize=10;" vertex="1" parent="1">
          <mxGeometry x="292" y="214.93" width="60" height="31.84" as="geometry" />
        </mxCell>
        <mxCell id="nQtQiy90exKeA4j0OEoB-7" value="&lt;meta charset=&quot;utf-8&quot; style=&quot;font-size: 10px;&quot;&gt;&lt;span style=&quot;color: rgb(0, 0, 0); font-family: Helvetica; font-size: 10px; font-style: normal; font-variant-ligatures: normal; font-variant-caps: normal; font-weight: 400; letter-spacing: normal; orphans: 2; text-align: center; text-indent: 0px; text-transform: none; widows: 2; word-spacing: 0px; -webkit-text-stroke-width: 0px; background-color: rgb(251, 251, 251); text-decoration-thickness: initial; text-decoration-style: initial; text-decoration-color: initial; float: none; display: inline !important;&quot;&gt;port 9002&lt;/span&gt;" style="text;whiteSpace=wrap;html=1;fontSize=10;" vertex="1" parent="1">
          <mxGeometry x="545.5" y="265" width="80" height="40" as="geometry" />
        </mxCell>
        <mxCell id="nQtQiy90exKeA4j0OEoB-8" value="&lt;span style=&quot;color: rgb(0, 0, 0); font-family: Helvetica; font-size: 10px; font-style: normal; font-variant-ligatures: normal; font-variant-caps: normal; font-weight: 400; letter-spacing: normal; orphans: 2; text-align: center; text-indent: 0px; text-transform: none; widows: 2; word-spacing: 0px; -webkit-text-stroke-width: 0px; background-color: rgb(251, 251, 251); text-decoration-thickness: initial; text-decoration-style: initial; text-decoration-color: initial; float: none; display: inline !important;&quot;&gt;API polling&lt;/span&gt;" style="text;whiteSpace=wrap;html=1;fontSize=10;" vertex="1" parent="1">
          <mxGeometry x="285" y="266" width="60" height="31.84" as="geometry" />
        </mxCell>
        <mxCell id="nQtQiy90exKeA4j0OEoB-9" value="&lt;span style=&quot;color: rgb(0, 0, 0); font-family: Helvetica; font-size: 10px; font-style: normal; font-variant-ligatures: normal; font-variant-caps: normal; font-weight: 400; letter-spacing: normal; orphans: 2; text-align: center; text-indent: 0px; text-transform: none; widows: 2; word-spacing: 0px; -webkit-text-stroke-width: 0px; background-color: rgb(251, 251, 251); text-decoration-thickness: initial; text-decoration-style: initial; text-decoration-color: initial; float: none; display: inline !important;&quot;&gt;API request&lt;/span&gt;" style="text;whiteSpace=wrap;html=1;fontSize=10;" vertex="1" parent="1">
          <mxGeometry x="536" y="215.15999999999997" width="107" height="31.84" as="geometry" />
        </mxCell>
      </root>
    </mxGraphModel>
  </diagram>
</mxfile>
